<?xml version="1.0" encoding="UTF-8" standalone="no"?>
<svg
   xmlns:dc="http://purl.org/dc/elements/1.1/"
   xmlns:cc="http://creativecommons.org/ns#"
   xmlns:rdf="http://www.w3.org/1999/02/22-rdf-syntax-ns#"
   xmlns:svg="http://www.w3.org/2000/svg"
   xmlns="http://www.w3.org/2000/svg"
   xmlns:sodipodi="http://sodipodi.sourceforge.net/DTD/sodipodi-0.dtd"
   xmlns:inkscape="http://www.inkscape.org/namespaces/inkscape"
   width="2502.9785"
   height="1400.1824"
   viewBox="0 0 2502.9785 1400.1824"
   version="1.1"
   xml:space="preserve"
   style="clip-rule:evenodd;fill-rule:evenodd;stroke-linecap:square"
   id="svg74"
   sodipodi:docname="PolsocLogo.svg"
   inkscape:version="1.0.1 (3bc2e813f5, 2020-09-07)"
   inkscape:export-filename="D:\PolSoc\PolsocSquare.png"
   inkscape:export-xdpi="96"
   inkscape:export-ydpi="96"><metadata
   id="metadata80"><rdf:RDF><cc:Work
       rdf:about=""><dc:format>image/svg+xml</dc:format><dc:type
         rdf:resource="http://purl.org/dc/dcmitype/StillImage" /><dc:title /></cc:Work></rdf:RDF></metadata><defs
   id="defs78" /><sodipodi:namedview
   pagecolor="#ffffff"
   bordercolor="#666666"
   borderopacity="1"
   objecttolerance="10"
   gridtolerance="10"
   guidetolerance="10"
   inkscape:pageopacity="0"
   inkscape:pageshadow="2"
   inkscape:window-width="1920"
   inkscape:window-height="1017"
   id="namedview76"
   showgrid="false"
   fit-margin-top="0"
   fit-margin-left="0"
   fit-margin-right="0"
   fit-margin-bottom="0"
   inkscape:zoom="0.23942308"
   inkscape:cx="1303.2711"
   inkscape:cy="1413.3733"
   inkscape:window-x="-8"
   inkscape:window-y="-8"
   inkscape:window-maximized="1"
   inkscape:current-layer="svg74"
   inkscape:document-rotation="0" />
    <g
   transform="matrix(1.61498,0,0,1.51991,452.18477,12.040227)"
   id="g13">
        <g
   id="path4">
            <rect
   x="95.236"
   y="530.22998"
   width="799.39001"
   height="213.17"
   style="fill:#a40204"
   id="rect10" />
        </g>
    </g>
    <g
   id="Eagle"
   transform="matrix(1.41672,0,0,1.41672,-158.12223,-679.70177)">
        <g
   transform="matrix(0.705856,0,0,0.705856,-63.8017,77.3941)"
   id="g17">
            <path
   d="m 1500,1955.79 c 0,0 -377.15,-620.97 -494.53,-811.7 -22.281,-36.21 -54.101,-65.57 -91.971,-84.88 C 534.713,866.388 344.286,766.734 262.5,583.036 c 0,0 714.161,255.926 843.5,302.275 12.92,4.63 23.88,13.513 31.09,25.192 l 246.98,400.237 c 24.56,-95.45 26.58,-260.16 56.58,-279.07 28.87,-18.19 174.23,-1.41 201.14,28.33 0,0 -75.07,9.92 -87.82,34 -11.84,22.36 51.55,177.89 60.58,218.98 l 248.36,-402.477 c 7.21,-11.679 18.17,-20.562 31.09,-25.192 129.34,-46.349 843.5,-302.275 843.5,-302.275 -81.79,183.698 -272.21,283.352 -651,476.174 -37.87,19.31 -69.69,48.67 -91.97,84.88 -117.38,190.73 -494.53,811.7 -494.53,811.7 z"
   style="fill:#ffffff;stroke:#a40204;stroke-width:15px"
   id="path15" />
        </g>
        <g
   transform="matrix(0.999091,0,0,0.999091,2.11555,0.788201)"
   id="g31">
            <g
   transform="matrix(0.705856,0,0,0.705856,-97.7385,63.8702)"
   id="g23">
                <path
   d="m 2019.79,1296.76 c 23,104.03 211.49,170.38 496.6,-170.81 -239.13,144.41 -316.18,167.7 -496.6,170.81 z"
   style="fill:#ffffff"
   id="path19" />
                <path
   d="m 2019.79,1296.76 c 11.5,52.01 64.37,94.61 150.01,81.55 85.63,-13.05 204.04,-81.76 346.59,-252.36 -239.13,144.41 -316.18,167.7 -496.6,170.81 z m 20.74,14.55 c 147.09,-4.05 227.8,-24.98 400.54,-123.55 -135.91,141.49 -244.15,184.58 -317.13,177.14 -41.55,-4.23 -70.28,-25.76 -83.41,-53.59 z"
   style="fill:#a40204"
   id="path21" />
            </g>
            <g
   transform="matrix(0.705856,0,0,0.705856,-63.8017,77.3941)"
   id="g29">
                <path
   d="m 2019.79,1234.16 c 52.99,-177.41 374.13,-197.59 534.45,-358.985 -41.53,97.923 -101.41,273.965 -534.45,358.985 z"
   style="fill:#ffffff"
   id="path25" />
                <path
   d="m 2019.79,1234.16 c 26.5,-88.7 120.03,-138.1 226.98,-185.5 106.95,-47.39 227.31,-92.789 307.47,-173.485 -41.53,97.923 -101.41,273.965 -534.45,358.985 z m 24.03,-20.24 c 26.38,-53.46 81.73,-89.97 147.53,-122.85 101.31,-50.63 227.18,-91.913 322.55,-161.798 -18.41,36.937 -44.87,78.348 -90.12,119.078 -69.83,62.87 -183.87,123.85 -379.96,165.57 z"
   style="fill:#a40204"
   id="path27" />
            </g>
        </g>
        <g
   transform="matrix(-0.999091,0,0,0.999091,1987.85,0.788201)"
   id="g45">
            <g
   transform="matrix(0.705856,0,0,0.705856,-97.7385,63.8702)"
   id="g37">
                <path
   d="m 2019.79,1296.76 c 23,104.03 211.49,170.38 496.6,-170.81 -239.13,144.41 -316.18,167.7 -496.6,170.81 z"
   style="fill:#ffffff"
   id="path33" />
                <path
   d="m 2019.79,1296.76 c 11.5,52.01 64.37,94.61 150.01,81.55 85.63,-13.05 204.04,-81.76 346.59,-252.36 -239.13,144.41 -316.18,167.7 -496.6,170.81 z m 20.74,14.55 c 13.13,27.83 41.86,49.36 83.41,53.59 72.98,7.44 181.22,-35.65 317.13,-177.14 -172.74,98.57 -253.45,119.5 -400.54,123.55 z"
   style="fill:#a40204"
   id="path35" />
            </g>
            <g
   transform="matrix(0.705856,0,0,0.705856,-63.8017,77.3941)"
   id="g43">
                <path
   d="m 2019.79,1234.16 c 52.99,-177.41 374.13,-197.59 534.45,-358.985 -41.53,97.923 -101.41,273.965 -534.45,358.985 z"
   style="fill:#ffffff"
   id="path39" />
                <path
   d="m 2019.79,1234.16 c 26.5,-88.7 120.03,-138.1 226.98,-185.5 106.95,-47.39 227.31,-92.789 307.47,-173.485 -41.53,97.923 -101.41,273.965 -534.45,358.985 z m 24.03,-20.24 c 196.09,-41.72 310.13,-102.7 379.96,-165.57 45.25,-40.73 71.71,-82.141 90.12,-119.078 -95.37,69.885 -221.24,111.168 -322.55,161.798 -65.8,32.88 -121.15,69.39 -147.53,122.85 z"
   style="fill:#a40204"
   id="path41" />
            </g>
        </g>
    </g>
    <g
   transform="matrix(1.64317,0,0,1.62279,438.15377,-53.420773)"
   id="g51">
        <g
   id="path8">
            <rect
   x="111.27"
   y="546.20001"
   width="767.41998"
   height="181.17"
   style="fill:#ffffff"
   id="rect48" />
        </g>
    </g>
    <g
   transform="matrix(1.64988,0,0,1.65124,434.83177,-71.630773)"
   id="g56">
        <g
   id="path10">
            <rect
   x="121.93"
   y="556.90002"
   width="746.09998"
   height="159.88"
   style="fill:#a40204"
   id="rect53" />
        </g>
    </g>
    <g
   transform="matrix(1.64988,0,0,1.64988,682.23977,1081.7342)"
   id="g72">
        <g
   id="g70">
            <path
   d="M 14.072,-123.383 V -0.012 H 38.098 V -45.707 H 53.65 c 14.255,0 24.424,-4.065 31.263,-10.902 9.426,-9.425 10.165,-22.753 10.165,-27.566 0,-8.886 -2.587,-20.914 -12.568,-29.784 -9.056,-7.946 -18.678,-9.424 -32.563,-9.424 z m 24.026,20.696 h 8.331 c 5.74,0 12.034,0.371 17.033,3.888 3.517,2.591 6.85,7.219 6.85,14.069 0,5.368 -2.222,10.922 -6.665,14.439 -5.184,3.888 -11.108,3.888 -15.737,3.888 h -9.812 z"
   style="fill:#ffffff;fill-rule:nonzero"
   id="path58" />
            <path
   d="m 172.79,-126.158 c -38.861,0 -65.848,26.988 -65.848,64.553 0,37.565 26.987,64.368 65.848,64.368 38.86,0 65.848,-26.803 65.848,-64.368 0,-37.565 -26.988,-64.553 -65.848,-64.553 z m 0,107.115 c -24.057,0 -41.082,-17.58 -41.082,-42.562 0,-24.982 17.025,-42.747 41.082,-42.747 24.056,0 41.082,17.765 41.082,42.747 0,24.982 -17.026,42.562 -41.082,42.562 z"
   style="fill:#ffffff;fill-rule:nonzero"
   id="path60" />
            <path
   d="M 260.862,-123.383 V -0.012 h 62.136 v -20.696 h -38.11 v -102.675 z"
   style="fill:#ffffff;fill-rule:nonzero"
   id="path62" />
            <path
   d="m 412.913,-111.745 c -12.569,-12.935 -27.182,-14.413 -34.958,-14.413 -27.38,0 -39.578,18.109 -39.578,36.241 0,12.583 5.729,19.43 9.795,22.946 6.285,5.552 14.047,8.512 20.526,10.733 7.035,2.406 14.441,4.811 19.07,9.067 3.333,3.146 4.814,6.662 4.814,11.103 0,10.363 -8.147,17.025 -19.07,17.025 -8.702,0 -19.98,-4.442 -25.894,-16.47 l -15.716,14.989 c 6.475,9.427 19.782,23.287 42.535,23.287 25.538,0 42.911,-16.447 42.911,-40.496 0,-12.584 -4.99,-20.911 -10.535,-25.907 -6.284,-5.736 -15.342,-9.067 -24.97,-12.398 -7.776,-2.776 -11.849,-4.256 -14.811,-7.032 -2.963,-2.591 -3.889,-5.366 -3.889,-8.327 0,-6.292 4.074,-14.435 17.034,-14.435 4.443,0 12.959,0.926 20.167,10.549 z"
   style="fill:#ffffff;fill-rule:nonzero"
   id="path64" />
            <path
   d="m 498.39,-126.158 c -38.861,0 -65.848,26.988 -65.848,64.553 0,37.565 26.987,64.368 65.848,64.368 38.86,0 65.848,-26.803 65.848,-64.368 0,-37.565 -26.988,-64.553 -65.848,-64.553 z m 0,107.115 c -24.057,0 -41.082,-17.58 -41.082,-42.562 0,-24.982 17.025,-42.747 41.082,-42.747 24.056,0 41.082,17.765 41.082,42.747 0,24.982 -17.026,42.562 -41.082,42.562 z"
   style="fill:#ffffff;fill-rule:nonzero"
   id="path66" />
            <path
   d="m 675.978,-32.552 c -7.215,8.512 -17.39,13.509 -28.86,13.509 -20.72,0 -41.81,-14.805 -41.81,-42.192 0,-22.761 16.095,-43.117 40.885,-43.117 4.44,0 18.5,0.925 29.785,13.879 v -28.109 c -11.285,-6.098 -21.645,-7.576 -30.34,-7.576 -17.575,0 -32.93,4.62 -45.32,16.262 -10.535,9.8 -19.776,25.9 -19.776,48.291 0,18.135 5.544,33.494 19.776,47.182 10.355,9.794 23.49,17.186 45.135,17.186 13.32,0 23.125,-3.326 30.525,-7.207 z"
   style="fill:#ffffff;fill-rule:nonzero"
   id="path68" />
        </g>
    </g>
</svg>
